<svg xmlns="http://www.w3.org/2000/svg" width="1600" height="1000" viewBox="0 0 1600 1000"><defs>
<radialGradient id="bg" cx="50%" cy="50%" r="75%"><stop offset="0" stop-color="#171238"/><stop offset="0.6" stop-color="#0a0a1c"/><stop offset="1" stop-color="#040409"/></radialGradient>
<pattern id="dots" width="40" height="40" patternUnits="userSpaceOnUse"><circle cx="2" cy="2" r="1.4" fill="#a78bfa" fill-opacity="0.13"/></pattern>
<marker id="ar" viewBox="0 0 10 10" refX="8" refY="5" markerWidth="9" markerHeight="9" orient="auto-start-reverse"><path d="M0 0L10 5L0 10z" fill="#a78bfa"/></marker>
<marker id="arg" viewBox="0 0 10 10" refX="8" refY="5" markerWidth="9" markerHeight="9" orient="auto-start-reverse"><path d="M0 0L10 5L0 10z" fill="#4ade80"/></marker>
</defs>
<rect width="1600" height="1000" fill="url(#bg)"/><rect width="1600" height="1000" fill="url(#dots)"/><rect x="820" y="70" width="700" height="250" rx="30" fill="#f87171" fill-opacity="0.07" stroke="#f87171" stroke-opacity="0.55" stroke-width="3" stroke-dasharray="10 8"/><text x="850" y="112" text-anchor="start" font-family="Helvetica Neue, Helvetica, Arial, sans-serif" font-size="26" font-weight="700" fill="#f87171" letter-spacing="3">PUBLIC VMs</text><text x="1490" y="112" text-anchor="end" font-family="Helvetica Neue, Helvetica, Arial, sans-serif" font-size="22" font-weight="500" fill="#8e93c9" >own public address · untrusted guests</text><rect x="900" y="150" width="170" height="130" rx="18" fill="#12112e" stroke="#f87171" stroke-opacity="0.7" stroke-width="2.5"/><rect x="922" y="176" width="126" height="10" rx="5" fill="#f87171" fill-opacity="0.5"/><rect x="922" y="198" width="86" height="10" rx="5" fill="#f87171" fill-opacity="0.3"/><text x="985" y="255" text-anchor="middle" font-family="Helvetica Neue, Helvetica, Arial, sans-serif" font-size="26" font-weight="600" fill="#e8eaff" >VM</text><rect x="1100" y="150" width="170" height="130" rx="18" fill="#12112e" stroke="#f87171" stroke-opacity="0.7" stroke-width="2.5"/><rect x="1122" y="176" width="126" height="10" rx="5" fill="#f87171" fill-opacity="0.5"/><rect x="1122" y="198" width="86" height="10" rx="5" fill="#f87171" fill-opacity="0.3"/><text x="1185" y="255" text-anchor="middle" font-family="Helvetica Neue, Helvetica, Arial, sans-serif" font-size="26" font-weight="600" fill="#e8eaff" >VM</text><rect x="1300" y="150" width="170" height="130" rx="18" fill="#12112e" stroke="#f87171" stroke-opacity="0.7" stroke-width="2.5"/><rect x="1322" y="176" width="126" height="10" rx="5" fill="#f87171" fill-opacity="0.5"/><rect x="1322" y="198" width="86" height="10" rx="5" fill="#f87171" fill-opacity="0.3"/><text x="1385" y="255" text-anchor="middle" font-family="Helvetica Neue, Helvetica, Arial, sans-serif" font-size="26" font-weight="600" fill="#e8eaff" >VM</text><rect x="820" y="400" width="700" height="520" rx="30" fill="#6d28d9" fill-opacity="0.12" stroke="#a78bfa" stroke-opacity="0.7" stroke-width="3"/><text x="850" y="446" text-anchor="start" font-family="Helvetica Neue, Helvetica, Arial, sans-serif" font-size="26" font-weight="700" fill="#a78bfa" letter-spacing="3">INTERNAL NETWORK</text><text x="1490" y="446" text-anchor="end" font-family="Helvetica Neue, Helvetica, Arial, sans-serif" font-size="22" font-weight="500" fill="#8e93c9" >private · default-deny firewall</text><rect x="860" y="484" width="300" height="84" rx="16" fill="#0d0d28" stroke="#a78bfa" stroke-opacity="0.55" stroke-width="2.5"/><circle cx="896" cy="526" r="9" fill="#4ade80"/><text x="926" y="536" text-anchor="start" font-family="Helvetica Neue, Helvetica, Arial, sans-serif" font-size="28" font-weight="600" fill="#e8eaff" >Git</text><rect x="1180" y="484" width="300" height="84" rx="16" fill="#0d0d28" stroke="#a78bfa" stroke-opacity="0.55" stroke-width="2.5"/><circle cx="1216" cy="526" r="9" fill="#4ade80"/><text x="1246" y="536" text-anchor="start" font-family="Helvetica Neue, Helvetica, Arial, sans-serif" font-size="28" font-weight="600" fill="#e8eaff" >Chat</text><rect x="860" y="588" width="300" height="84" rx="16" fill="#0d0d28" stroke="#a78bfa" stroke-opacity="0.55" stroke-width="2.5"/><circle cx="896" cy="630" r="9" fill="#4ade80"/><text x="926" y="640" text-anchor="start" font-family="Helvetica Neue, Helvetica, Arial, sans-serif" font-size="28" font-weight="600" fill="#e8eaff" >Files</text><rect x="1180" y="588" width="300" height="84" rx="16" fill="#0d0d28" stroke="#a78bfa" stroke-opacity="0.55" stroke-width="2.5"/><circle cx="1216" cy="630" r="9" fill="#4ade80"/><text x="1246" y="640" text-anchor="start" font-family="Helvetica Neue, Helvetica, Arial, sans-serif" font-size="28" font-weight="600" fill="#e8eaff" >Tasks</text><rect x="860" y="692" width="300" height="84" rx="16" fill="#0d0d28" stroke="#a78bfa" stroke-opacity="0.55" stroke-width="2.5"/><circle cx="896" cy="734" r="9" fill="#4ade80"/><text x="926" y="744" text-anchor="start" font-family="Helvetica Neue, Helvetica, Arial, sans-serif" font-size="28" font-weight="600" fill="#e8eaff" >Meetings</text><rect x="1180" y="692" width="300" height="84" rx="16" fill="#0d0d28" stroke="#a78bfa" stroke-opacity="0.55" stroke-width="2.5"/><circle cx="1216" cy="734" r="9" fill="#4ade80"/><text x="1246" y="744" text-anchor="start" font-family="Helvetica Neue, Helvetica, Arial, sans-serif" font-size="28" font-weight="600" fill="#e8eaff" >Databases</text><rect x="860" y="796" width="300" height="84" rx="16" fill="#0d0d28" stroke="#a78bfa" stroke-opacity="0.55" stroke-width="2.5"/><circle cx="896" cy="838" r="9" fill="#4ade80"/><text x="926" y="848" text-anchor="start" font-family="Helvetica Neue, Helvetica, Arial, sans-serif" font-size="28" font-weight="600" fill="#e8eaff" >Admin tools</text><rect x="1180" y="796" width="300" height="84" rx="16" fill="#0d0d28" stroke="#a78bfa" stroke-opacity="0.55" stroke-width="2.5"/><circle cx="1216" cy="838" r="9" fill="#4ade80"/><text x="1246" y="848" text-anchor="start" font-family="Helvetica Neue, Helvetica, Arial, sans-serif" font-size="25" font-weight="600" fill="#e8eaff" >Logs &amp; monitoring</text><path d="M820 360H1520" stroke="#f87171" stroke-width="4" stroke-dasharray="4 12" stroke-linecap="round"/><rect x="1030" y="334" width="280" height="52" rx="26" fill="#0b0b22" stroke="#f87171" stroke-width="3"/><path d="M1054 350l16 20M1070 350l-16 20" stroke="#f87171" stroke-width="5" stroke-linecap="round"/><text x="1196" y="368" text-anchor="middle" font-family="Helvetica Neue, Helvetica, Arial, sans-serif" font-size="26" font-weight="700" fill="#f87171" >no route</text><circle cx="150" cy="195" r="68" fill="#6d28d9" fill-opacity="0.18"/><circle cx="150" cy="195" r="56" fill="#0d0d28" stroke="#a78bfa" stroke-width="3"/><g transform="translate(150,195)" fill="none" stroke="#a78bfa" stroke-width="5" stroke-linecap="round" stroke-linejoin="round"><path d="M-30 14H28A14 14 0 0 0 28-14 20 20 0 0 0-10-18 17 17 0 0 0-30 14Z"/></g><text x="150" y="290" text-anchor="middle" font-family="Helvetica Neue, Helvetica, Arial, sans-serif" font-size="28" font-weight="600" fill="#e8eaff" >Internet</text><circle cx="520" cy="640" r="68" fill="#6d28d9" fill-opacity="0.18"/><circle cx="520" cy="640" r="56" fill="#0d0d28" stroke="#a78bfa" stroke-width="3"/><g transform="translate(520,640)" fill="none" stroke="#a78bfa" stroke-width="5" stroke-linecap="round" stroke-linejoin="round"><path d="M-26 -20H26V20H-26Z"/><path d="M-26 0H-6M6 -10L14 0L6 10M14 0H26"/></g><text x="520" y="735" text-anchor="middle" font-family="Helvetica Neue, Helvetica, Arial, sans-serif" font-size="28" font-weight="600" fill="#e8eaff" >Reverse proxy</text><text x="520" y="770" text-anchor="middle" font-family="Helvetica Neue, Helvetica, Arial, sans-serif" font-size="22" font-weight="500" fill="#8e93c9" >TLS · one public door</text><circle cx="520" cy="880" r="62" fill="#6d28d9" fill-opacity="0.18"/><circle cx="520" cy="880" r="50" fill="#0d0d28" stroke="#a78bfa" stroke-width="3"/><g transform="translate(520,880)" fill="none" stroke="#a78bfa" stroke-width="5" stroke-linecap="round" stroke-linejoin="round"><rect x="-20" y="-4" width="40" height="28" rx="6"/><path d="M-12 -4V-12a12 12 0 0 1 24 0V-4"/><circle cx="0" cy="10" r="3" fill="#a78bfa"/></g><circle cx="150" cy="880" r="62" fill="#6d28d9" fill-opacity="0.18"/><circle cx="150" cy="880" r="50" fill="#0d0d28" stroke="#a78bfa" stroke-width="3"/><g transform="translate(150,884)" fill="none" stroke="#a78bfa" stroke-width="5" stroke-linecap="round" stroke-linejoin="round"><rect x="-26" y="-20" width="52" height="34" rx="5"/><path d="M-34 20H34"/></g><text x="150" y="960" text-anchor="middle" font-family="Helvetica Neue, Helvetica, Arial, sans-serif" font-size="26" font-weight="600" fill="#e8eaff" >Teammate (VPN)</text><text x="520" y="960" text-anchor="middle" font-family="Helvetica Neue, Helvetica, Arial, sans-serif" font-size="26" font-weight="600" fill="#e8eaff" >WireGuard</text><path d="M212 195H818" fill="none" stroke="#a78bfa" stroke-width="4" stroke-linecap="round" stroke-linejoin="round"  marker-end="url(#ar)"/><text x="500" y="170" text-anchor="middle" font-family="Helvetica Neue, Helvetica, Arial, sans-serif" font-size="22" font-weight="500" fill="#8e93c9" >direct, own public addresses</text><path d="M206 238L474 600" fill="none" stroke="#a78bfa" stroke-width="4" stroke-linecap="round" stroke-linejoin="round"  marker-end="url(#ar)"/><text x="372" y="400" text-anchor="middle" font-family="Helvetica Neue, Helvetica, Arial, sans-serif" font-size="22" font-weight="500" fill="#8e93c9" transform="rotate(53.5 372 400)">HTTPS</text><path d="M582 640H818" fill="none" stroke="#a78bfa" stroke-width="4" stroke-linecap="round" stroke-linejoin="round"  marker-end="url(#ar)"/><text x="690" y="616" text-anchor="middle" font-family="Helvetica Neue, Helvetica, Arial, sans-serif" font-size="22" font-weight="500" fill="#8e93c9" >only published apps</text><path d="M208 880H464" fill="none" stroke="#4ade80" stroke-width="4" stroke-linecap="round" stroke-linejoin="round"  marker-end="url(#arg)"/><path d="M574 880H818" fill="none" stroke="#4ade80" stroke-width="4" stroke-linecap="round" stroke-linejoin="round"  marker-end="url(#arg)"/><text x="700" y="862" text-anchor="middle" font-family="Helvetica Neue, Helvetica, Arial, sans-serif" font-size="22" font-weight="500" fill="#8e93c9" >identity per person</text></svg>